<svg width="1440" height="645" viewBox="0 0 1440 645" fill="none" xmlns="http://www.w3.org/2000/svg">
<g clip-path="url(#clip0_39889_87792)">
<g opacity="0.8">
<path opacity="0.25" d="M71.6895 604.905C84.3326 603.352 93.3247 591.849 91.774 579.213C90.2234 566.577 78.717 557.592 66.074 559.145C53.4309 560.698 44.4387 572.201 45.9894 584.838C47.5401 597.474 59.0464 606.459 71.6895 604.905Z" fill="#CFDAE6"/>
<path opacity="0.6" d="M6.63619 575.384C9.66441 575.012 11.8182 572.257 11.4468 569.231C11.0754 566.204 8.3194 564.052 5.29118 564.424C2.26296 564.796 0.109196 567.551 0.480611 570.578C0.852025 573.604 3.60797 575.756 6.63619 575.384Z" fill="#CFDAE6"/>
<path opacity="0.45" fill-rule="evenodd" clip-rule="evenodd" d="M49.3583 644.054C55.4148 643.31 59.7223 637.8 58.9795 631.747C58.2366 625.694 52.7248 621.39 46.6683 622.134C40.6119 622.878 36.3043 628.388 37.0472 634.441C37.79 640.495 43.3019 644.799 49.3583 644.054Z" fill="#CFDAE6"/>
<path opacity="0.8" d="M69.7103 582.673L125.271 558.13" stroke="#CFDAE6" stroke-width="1.73913" stroke-linecap="round" stroke-linejoin="round"/>
<path opacity="0.7" d="M45.5893 578.517L7.86572 570.415" stroke="#E0B4B7" stroke-width="0.702679" stroke-linecap="round" stroke-linejoin="round" stroke-dasharray="1.41 2.11"/>
<path opacity="0.8" d="M69.388 583.087L52.7207 623.339" stroke="#BACAD9" stroke-width="0.702679" stroke-linecap="round" stroke-linejoin="round" stroke-dasharray="1.41 2.11"/>
<g opacity="0.8">
<path opacity="0.45" d="M128.755 562.651C133.672 564.739 139.349 562.448 141.434 557.533C143.519 552.619 141.224 546.942 136.307 544.854C131.389 542.766 125.713 545.058 123.628 549.972C121.542 554.887 123.838 560.563 128.755 562.651Z" fill="#CFDAE6"/>
<path opacity="0.8" fill-rule="evenodd" clip-rule="evenodd" d="M123.627 549.973C121.542 554.887 123.838 560.563 128.755 562.651C133.672 564.739 139.348 562.448 141.434 557.534L123.627 549.973Z" fill="#CFDAE6"/>
</g>
</g>
<path opacity="0.25" d="M138.791 97.0886C155.753 95.6038 168.3 80.6352 166.815 63.6555C165.33 46.6757 150.376 34.1146 133.414 35.5994C116.452 37.0842 103.905 52.0528 105.39 69.0326C106.874 86.0123 121.828 98.5735 138.791 97.0886Z" fill="#CFDAE6"/>
<path opacity="0.3" d="M138.094 89.1178C150.658 88.0179 159.952 76.9301 158.852 64.3525C157.753 51.7749 146.675 42.4703 134.111 43.5702C121.546 44.6701 112.252 55.7579 113.352 68.3355C114.452 80.9131 125.529 90.2177 138.094 89.1178Z" fill="#CFDAE6"/>
<path opacity="0.4" d="M306.461 192.569C320.282 191.359 330.506 179.162 329.296 165.327C328.086 151.491 315.901 141.256 302.08 142.466C288.259 143.676 278.036 155.873 279.246 169.708C280.455 183.543 292.64 193.778 306.461 192.569Z" stroke="#CFDAE6"/>
<path opacity="0.5" d="M137.098 77.7309C143.38 77.181 148.027 71.637 147.477 65.3482C146.928 59.0594 141.389 54.4072 135.107 54.9571C128.824 55.507 124.177 61.051 124.727 67.3398C125.277 73.6286 130.816 78.2808 137.098 77.7309Z" fill="#BACAD9"/>
<path fill-rule="evenodd" clip-rule="evenodd" d="M137.098 77.7309L135.107 54.9568C128.825 55.5068 124.177 61.0507 124.727 67.3396C125.277 73.6285 130.816 78.2808 137.098 77.7309Z" fill="#BACAD9"/>
<g opacity="0.45">
<path opacity="0.45" d="M304.868 174.349C308.638 174.019 311.426 170.693 311.096 166.92C310.766 163.147 307.443 160.355 303.674 160.685C299.904 161.016 297.116 164.342 297.446 168.115C297.775 171.888 301.099 174.68 304.868 174.349Z" fill="#E6A1A6"/>
<path opacity="0.45" fill-rule="evenodd" clip-rule="evenodd" d="M304.868 174.349C301.099 174.68 297.776 171.888 297.446 168.115C297.116 164.342 299.904 161.015 303.674 160.685L304.868 174.349Z" fill="#E6A1A6"/>
</g>
<path d="M345.988 166.161C346.93 166.079 347.627 165.247 347.544 164.304C347.462 163.361 346.631 162.663 345.689 162.745C344.747 162.828 344.05 163.659 344.132 164.603C344.214 165.546 345.045 166.244 345.988 166.161Z" fill="#CFDAE6"/>
<path opacity="0.35" d="M308.425 208.461C309.367 208.379 310.064 207.547 309.982 206.604C309.899 205.661 309.068 204.963 308.126 205.045C307.184 205.128 306.487 205.959 306.569 206.903C306.652 207.846 307.482 208.544 308.425 208.461Z" fill="#E0B4B7"/>
<path opacity="0.35" d="M302.321 132.118C303.577 132.008 304.506 130.899 304.396 129.641C304.286 128.383 303.179 127.453 301.922 127.563C300.666 127.673 299.736 128.782 299.846 130.039C299.956 131.297 301.064 132.228 302.321 132.118Z" fill="#E0B4B7"/>
<path opacity="0.8" d="M136.053 67.2311L295.485 162.679" stroke="#CFDAE6"/>
<g opacity="0.8">
<path opacity="0.8" d="M1133.18 37.739C1139.6 36.4902 1143.79 30.221 1142.53 23.7364C1141.27 17.2518 1135.04 13.0073 1128.62 14.2561C1122.2 15.505 1118.01 21.7742 1119.27 28.2588C1120.53 34.7434 1126.76 38.9878 1133.18 37.739Z" stroke="#CFDAE6" stroke-width="0.941176"/>
<g opacity="0.8">
<path opacity="0.45" d="M1132.59 34.8987C1137.46 33.9525 1140.63 29.2031 1139.67 24.2906C1138.72 19.3782 1134 16.163 1129.14 17.1092C1124.27 18.0554 1121.1 22.8048 1122.06 27.7172C1123.01 32.6297 1127.73 35.8449 1132.59 34.8987Z" fill="#BACAD9"/>
<path opacity="0.8" fill-rule="evenodd" clip-rule="evenodd" d="M1132.59 34.8994C1137.46 33.9531 1140.63 29.2036 1139.67 24.2909C1138.72 19.3783 1134 16.163 1129.14 17.1092L1132.59 34.8994Z" fill="#BACAD9"/>
</g>
<path opacity="0.8" d="M1119.93 20.3707L1085.8 5.3868" stroke="#CFDAE6" stroke-width="0.941176"/>
<path opacity="0.8" d="M1083.62 7.77281C1085.49 7.40857 1086.71 5.58005 1086.34 3.68871C1085.98 1.79736 1084.16 0.559402 1082.29 0.923644C1080.42 1.28788 1079.19 3.1164 1079.56 5.00774C1079.93 6.89909 1081.75 8.13705 1083.62 7.77281Z" stroke="#CFDAE6" stroke-width="0.941176"/>
<path opacity="0.8" d="M1094.73 67.5554C1096.34 67.2432 1097.38 65.6759 1097.07 64.0548C1096.75 62.4336 1095.2 61.3725 1093.59 61.6847C1091.99 61.9969 1090.94 63.5642 1091.26 65.1854C1091.57 66.8065 1093.13 67.8676 1094.73 67.5554Z" fill="#F7E1AD"/>
<path opacity="0.8" d="M1122.83 35.4346L1096.24 62.7154" stroke="#CFDAE6" stroke-width="0.941176"/>
</g>
<g opacity="0.33">
<g opacity="0.33">
<path opacity="0.45" d="M1366.52 447.304C1365.92 440.506 1359.93 435.478 1353.14 436.073C1346.34 436.668 1341.31 442.661 1341.91 449.459C1342.5 456.257 1348.49 461.285 1355.29 460.69C1362.08 460.095 1367.11 454.101 1366.52 447.304Z" fill="#BACAD9"/>
<path opacity="0.33" fill-rule="evenodd" clip-rule="evenodd" d="M1355.29 460.691C1362.08 460.095 1367.11 454.102 1366.52 447.304C1365.92 440.506 1359.93 435.478 1353.14 436.073L1355.29 460.691Z" fill="#BACAD9"/>
</g>
<path opacity="0.33" d="M1415.56 425.222C1418.92 424.629 1421.16 421.425 1420.57 418.065C1419.98 414.705 1416.78 412.461 1413.42 413.054C1410.06 413.647 1407.81 416.851 1408.41 420.211C1409 423.571 1412.2 425.815 1415.56 425.222Z" fill="#CFDAE6"/>
<path opacity="0.33" d="M1353.9 431.235L1352.88 354.835" stroke="#BACAD9" stroke-width="1.16667"/>
<path opacity="0.33" d="M1213.06 400.719L1338.81 443.392" stroke="#BACAD9" stroke-width="1.16667"/>
<path opacity="0.33" d="M1360.12 464.007L1412.93 574.348L1255.21 511.774L1340.09 457.357" stroke="#CFDAE6" stroke-width="1.16667"/>
<path opacity="0.6" d="M1372.95 439.635L1408.12 422.143" stroke="#E0B4B7" stroke-width="1.16667"/>
<path opacity="0.33" d="M1417.15 412.901L1443.51 358.812" stroke="#BACAD9" stroke-width="1.16667"/>
<path opacity="0.33" d="M1490.37 453.858L1420.5 421.217" stroke="#CFDAE6" stroke-width="1.16667"/>
<path opacity="0.33" d="M1354.78 354.387C1359.82 353.498 1363.19 348.691 1362.3 343.651C1361.41 338.611 1356.61 335.246 1351.57 336.135C1346.53 337.024 1343.16 341.83 1344.05 346.87C1344.94 351.91 1349.75 355.276 1354.78 354.387Z" fill="#C1D1E0"/>
<path opacity="0.33" d="M1257.02 518.431C1260.04 517.897 1262.06 515.013 1261.53 511.989C1260.99 508.965 1258.11 506.946 1255.09 507.479C1252.06 508.013 1250.04 510.897 1250.58 513.921C1251.11 516.945 1253.99 518.964 1257.02 518.431Z" fill="#C1D1E0"/>
<path opacity="0.33" d="M1204.8 407.191C1209.84 406.302 1213.2 401.495 1212.31 396.455C1211.42 391.415 1206.62 388.049 1201.58 388.938C1196.54 389.827 1193.18 394.634 1194.06 399.674C1194.95 404.714 1199.76 408.08 1204.8 407.191Z" fill="#D1DEED" fill-opacity="0.6"/>
<path opacity="0.33" d="M1414.79 580.94C1417.81 580.407 1419.83 577.523 1419.3 574.499C1418.76 571.475 1415.88 569.456 1412.86 569.989C1409.83 570.522 1407.82 573.406 1408.35 576.431C1408.88 579.455 1411.76 581.474 1414.79 580.94Z" fill="#E0B4B7"/>
</g>
</g>
<defs>
<clipPath id="clip0_39889_87792">
<rect width="1441" height="645" fill="white"/>
</clipPath>
</defs>
</svg>
